<?xml version="1.0" encoding="UTF-8" standalone="no"?> <!-- Created with Vectornator for iOS (http://vectornator.io/) --><!DOCTYPE svg PUBLIC "-//W3C//DTD SVG 1.1//EN" "http://www.w3.org/Graphics/SVG/1.1/DTD/svg11.dtd">
<svg height="100%" style="fill-rule:evenodd;clip-rule:evenodd;stroke-linecap:round;stroke-linejoin:round;" xmlns:xlink="http://www.w3.org/1999/xlink" xmlns="http://www.w3.org/2000/svg" xml:space="preserve" width="100%" xmlns:vectornator="http://vectornator.io" version="1.1" viewBox="0 0 205 60">
<metadata>
<vectornator:setting key="DisplayWhiteBackground" value="0"/>
<vectornator:setting key="RulersVisible" value="1"/>
<vectornator:setting key="SnapToEdges" value="1"/>
<vectornator:setting key="Units" value="Pixels"/>
<vectornator:setting key="DynamicGuides" value="1"/>
<vectornator:setting key="SnapToPoints" value="1"/>
<vectornator:setting key="CMYKEnabledKey" value="0"/>
<vectornator:setting key="SnapToGrid" value="0"/>
<vectornator:setting key="SnapToGuides" value="1"/>
<vectornator:setting key="ShowGrid" value="0"/>
<vectornator:setting key="GridSpacing" value="36"/>
</metadata>
<defs/>
<g id="Layer 1" vectornator:layerName="Layer 1">
<path d="M11.2828+28.4087L191.45+28.4087L191.45+31.2785L11.2828+31.2785L11.2828+28.4087Z" opacity="1" fill="#7090a5"/>
<path d="M14.8395+21.9408L14.8395+5.89275L12.1313+5.89275L12.1313+21.9408L14.8395+21.9408ZM17.3087+21.9408L20.0169+21.9408L20.0169+5.89275L17.3087+5.89275L17.3087+21.9408ZM31.0705+21.9408L24.274+15.1746C23.8839+14.7845+23.4296+14.3751+23.4296+13.6601C23.4296+13.1142+23.779+12.8151+24.1052+12.4707L30.3134+5.89275L26.9647+5.89275L21.5194+11.8986C21.1292+12.3342+20.8205+13.0687+20.8205+13.6861C20.8205+14.2386+21.0069+15.0381+21.7233+15.7726L27.6403+21.9408L31.0705+21.9408ZM34.396+21.9408L34.396+16.2535L41.1341+16.2535C41.9787+16.2535+42.7999+15.9544+43.3357+15.4735C44.4655+14.4401+44.5877+12.3797+44.5877+11.0732C44.5877+9.72129+44.483+7.90788+43.4986+6.8548C42.6135+5.89275+41.4021+5.89275+40.645+5.89275L33.802+5.89275C33.307+5.89275+32.6489+5.98377+32.177+6.51041C31.6879+7.05632+31.6879+7.6998+31.6879+8.29778L31.6879+21.9408L34.396+21.9408ZM34.396+13.8485L34.396+9.25984C34.396+8.98678+34.396+8.70716+34.5823+8.50586C34.7862+8.27175+35.0365+8.29778+35.2171+8.29778L39.5967+8.29778C40.0451+8.29778+40.8081+8.31683+41.2798+8.85025C41.734+9.37668+41.7922+10.3387+41.7922+11.0472C41.7922+11.6712+41.7515+12.698+41.3206+13.2505C40.8489+13.8485+40.15+13.8485+39.5559+13.8485L34.396+13.8485ZM59.5434+5.89275L56.8295+5.89275L56.8295+12.4707L49.3517+12.4707L49.3517+5.89275L46.6436+5.89275L46.6436+21.9408L49.3517+21.9408L49.3517+14.8755L56.8295+14.8755L56.8295+21.9408L59.5434+21.9408L59.5434+5.89275Z" opacity="1" fill="#475c69"/>
<path d="M69.5082+21.9408L69.5082+5.89275L66.8+5.89275L66.8+21.9408L69.5082+21.9408ZM71.5639+21.9408L73.9692+21.9408L73.9692+12.4965C73.9692+12.3342+73.9692+12.1521+74.0915+11.9896C74.2138+11.8533+74.3593+11.8533+74.505+11.8533L76.9451+11.8533C77.8303+11.8533+78.3253+12.0806+78.6749+12.5876C79.065+13.1597+79.1232+13.9395+79.1232+14.739L79.1232+21.9408L81.5285+21.9408L81.5285+13.9395C81.5285+12.2626+81.0335+11.3461+80.4628+10.7741C79.5951+9.90332+78.5525+9.78627+77.4227+9.78627L73.579+9.78627C73.1072+9.78627+72.3677+9.76722+71.9133+10.3387C71.5872+10.7286+71.5639+11.2811+71.5639+11.6452L71.5639+21.9408ZM89.3558+21.9408L89.3558+19.874L88.7618+19.874C88.3309+19.874+87.4222+19.8549+86.8923+19.3473C86.1934+18.7104+86.2516+17.56+86.2516+16.7345L86.2516+11.8533L89.2917+11.8533L89.2917+9.78627L86.2516+9.78627L86.2516+5.89275L83.8522+5.89275L83.8522+9.78627L82.3497+9.78627L82.3497+11.8533L83.8522+11.8533L83.8522+17.9759C83.8522+19.5099+84.2425+20.407+84.9413+21.0439C85.6168+21.6679+86.3973+21.9408+87.8533+21.9408L89.3558+21.9408ZM100.037+21.9408L100.037+19.874L94.7196+19.874C93.8343+19.874+92.8268+19.7375+92.5182+18.431C92.4367+18.0669+92.3784+17.2869+92.3784+16.7605L98.7031+16.7605C99.1342+16.7605+99.5476+16.6695+99.8736+16.299C100.328+15.7984+100.386+15.0836+100.386+14.4662C100.386+12.9322+100.124+11.4176+98.8487+10.5208C97.8412+9.8123+96.525+9.74076+95.2495+9.74076C94.2246+9.74076+92.3784+9.74076+91.1845+10.8912C89.9906+12.0351+89.8916+13.7122+89.8916+15.9805C89.8916+17.586+89.9498+19.2563+90.6721+20.407C91.5746+21.8239+92.8909+21.9408+93.9974+21.9408L100.037+21.9408ZM92.3784+14.6935C92.3955+13.894+92.3784+13.2247+92.8676+12.607C93.5257+11.7817+94.5098+11.8078+95.1505+11.8078C95.8261+11.8078+96.6065+11.8533+97.2064+12.3537C97.5558+12.6525+97.9052+13.2247+97.9052+13.985C97.9052+14.3036+97.8412+14.6935+97.3694+14.6935L92.3784+14.6935ZM101.743+21.9408L104.148+21.9408L104.148+15.0836C104.148+14.1671+104.253+13.3221+104.702+12.698C105.278+11.9441+106.123+11.8533+106.758+11.8533L107.765+11.8533L107.765+9.78627L106.14+9.78627C105.296+9.78627+103.881+9.85781+102.873+10.8457C101.947+11.7362+101.743+13.0427+101.743+14.3751L101.743+21.9408ZM108.586+16.9425L115.924+16.9425L115.924+14.583L108.586+14.583L108.586+16.9425ZM117.98+21.9408L120.688+21.9408L120.688+5.89275L117.98+5.89275L117.98+21.9408ZM131.742+21.9408L124.945+15.1746C124.555+14.7845+124.101+14.3751+124.101+13.6601C124.101+13.1142+124.45+12.8151+124.777+12.4707L130.985+5.89275L127.636+5.89275L122.191+11.8986C121.801+12.3342+121.492+13.0687+121.492+13.6861C121.492+14.2386+121.678+15.0381+122.395+15.7726L128.312+21.9408L131.742+21.9408Z" opacity="1" fill="#009ee0"/>
<path d="M137.25+9.64975C135.951+9.64975+134.04+9.69526+132.852+10.9367C131.594+12.2432+131.455+14.5375+131.455+15.9091C131.455+17.1504+131.554+19.4384+132.852+20.7709C134.04+21.9863+135.951+22.0773+137.25+22.0773C138.502+22.0773+140.47+21.9863+141.646+20.7709C142.444+19.9259+143.038+18.3855+143.038+15.8181C143.038+14.5375+142.899+12.2432+141.646+10.9367C140.453+9.69526+138.542+9.64975+137.25+9.64975ZM133.941+15.8895C133.941+15.1097+133.941+13.5496+134.617+12.6786C135.293+11.8078+136.469+11.7167+137.25+11.7167C138.111+11.7167+139.16+11.8078+139.859+12.6786C140.616+13.6146+140.557+14.9926+140.557+15.8895C140.557+16.9425+140.557+18.1125+139.835+19.003C139.119+19.8998+138.152+20.0169+137.25+20.0169C136.382+20.0169+135.333+19.8998+134.64+19.003C133.959+18.1319+133.941+16.897+133.941+15.8895ZM144.395+21.9408L146.801+21.9408L146.801+12.4965C146.801+12.3342+146.801+12.1522+146.923+11.9896C147.045+11.8533+147.191+11.8533+147.336+11.8533L149.777+11.8533C150.662+11.8533+151.157+12.0806+151.506+12.5876C151.896+13.1597+151.955+13.9395+151.955+14.739L151.955+21.9408L154.36+21.9408L154.36+13.9395C154.36+12.2626+153.865+11.3461+153.294+10.7742C152.426+9.90333+151.384+9.78628+150.254+9.78628L146.41+9.78628C145.939+9.78628+145.199+9.76723+144.745+10.3387C144.419+10.7286+144.395+11.2811+144.395+11.6452L144.395+21.9408ZM162.187+21.9408L162.187+19.874L161.593+19.874C161.162+19.874+160.254+19.855+159.724+19.3474C159.025+18.7104+159.083+17.56+159.083+16.7345L159.083+11.8533L162.123+11.8533L162.123+9.78628L159.083+9.78628L159.083+5.89276L156.684+5.89276L156.684+9.78628L155.181+9.78628L155.181+11.8533L156.684+11.8533L156.684+17.9759C156.684+19.5099+157.074+20.407+157.773+21.0439C158.448+21.6679+159.229+21.9408+160.685+21.9408L162.187+21.9408Z" opacity="1" fill="#009ee0"/>
<path d="M163.727+9.78628L163.727+11.8533L169.09+11.8533C169.463+11.8533+169.935+11.9183+170.261+12.3797C170.529+12.7436+170.57+13.1597+170.57+13.5236L170.57+14.3751L165.846+14.3751C165.27+14.3751+164.53+14.4207+163.849+15.0836C163.028+15.8895+162.929+16.962+162.929+18.0409C162.929+18.938+162.987+20.4978+163.872+21.3428C164.489+21.9408+165.247+21.9408+165.846+21.9408L171.041+21.9408C171.554+21.9408+172.154+21.8953+172.544+21.4599C172.934+21.0244+172.975+20.3354+172.975+19.8998L172.975+13.5951C172.975+12.2432+172.625+11.2551+172.171+10.7286C171.682+10.1567+170.838+9.78628+169.911+9.78628L163.727+9.78628ZM170.57+16.4356L170.57+19.2369C170.57+19.4189+170.57+19.5815+170.406+19.7375C170.244+19.874+170.016+19.874+169.871+19.874L166.522+19.874C166.213+19.874+165.905+19.692+165.742+19.5099C165.456+19.1655+165.416+18.522+165.416+18.158C165.416+17.2869+165.596+16.962+165.678+16.8515C165.945+16.4616+166.4+16.4356+166.563+16.4356L170.57+16.4356ZM177.022+21.9408L177.022+5.89276L174.617+5.89276L174.617+21.9408L177.022+21.9408ZM185.118+21.9408L180.656+16.6889C180.389+16.3706+180.144+15.9544+180.144+15.5645C180.144+15.1746+180.307+14.9211+180.493+14.6935L184.582+9.78628L181.786+9.78628L178.502+13.8227C178.193+14.2126+177.739+14.739+177.739+15.6556C177.739+16.5071+178.17+17.1246+178.478+17.495L182.241+21.9408L185.118+21.9408ZM191.832+21.9408L191.832+19.874L191.238+19.874C190.808+19.874+189.899+19.8549+189.369+19.3474C188.67+18.7104+188.728+17.56+188.728+16.7345L188.728+11.8533L191.769+11.8533L191.769+9.78628L188.728+9.78628L188.728+5.89276L186.329+5.89276L186.329+9.78628L184.826+9.78628L184.826+11.8533L186.329+11.8533L186.329+17.9759C186.329+19.5099+186.719+20.407+187.418+21.0439C188.094+21.6679+188.874+21.9408+190.33+21.9408L191.832+21.9408Z" opacity="1" fill="#009ee0"/>
<path d="M13.8015+38.7938L18.3549+38.7938C18.9462+38.7938+19.4686+38.9038+19.9219+39.1293C20.3751+39.3547+20.7547+39.6517+21.0651+40.0147C21.3707+40.3777+21.6023+40.7903+21.7601+41.2466C21.9127+41.7032+21.9916+42.1596+21.9916+42.6162C21.9916+43.1056+21.9127+43.5842+21.7502+44.0407C21.5875+44.4971+21.351+44.9097+21.0454+45.2727C20.7349+45.6355+20.3556+45.9217+19.9071+46.1361C19.4538+46.3505+18.9364+46.4551+18.3549+46.4551L15.0876+46.4551L15.0876+52.219L13.8015+52.219L13.8015+38.7938ZM15.0876+45.1956L18.3549+45.1956C18.6703+45.1956+18.9707+45.1296+19.2565+44.9922C19.5374+44.8546+19.7889+44.6732+20.0008+44.4366C20.2126+44.2056+20.385+43.9307+20.5132+43.6117C20.6414+43.2982+20.7053+42.9572+20.7053+42.5942C20.7053+42.2311+20.6464+41.8956+20.5231+41.5932C20.3998+41.2907+20.2373+41.0322+20.0303+40.8123C19.8183+40.5921+19.5719+40.4162+19.291+40.2842C19.0052+40.1578+18.6948+40.0918+18.3549+40.0918L15.0876+40.0918L15.0876+45.1956ZM23.7803+42.5776L25.0518+42.5776L24.9976+44.0517C25.5298+42.9517+26.274+42.4017+27.2249+42.4017C27.3186+42.4017+27.4173+42.4123+27.5206+42.4293C27.6242+42.4513+27.7228+42.4786+27.8163+42.5171L27.8163+43.9747C27.5354+43.8701+27.3285+43.8151+27.1904+43.8151C26.8506+43.8151+26.5499+43.8866+26.2838+44.0297C26.0178+44.1726+25.7909+44.3652+25.6087+44.6017C25.4215+44.8436+25.2834+45.1186+25.1897+45.4266C25.0962+45.74+25.0518+46.0645+25.0518+46.4L25.0518+52.219L23.7803+52.219L23.7803+42.5776ZM29.1912+47.4066C29.1912+46.719+29.2799+46.0756+29.4523+45.4651C29.6249+44.8601+29.8811+44.3322+30.2113+43.8756C30.5415+43.4246+30.9455+43.0672+31.4333+42.7976C31.9213+42.5336+32.4732+42.4017+33.0991+42.4017C33.7248+42.4017+34.2866+42.5336+34.7795+42.7976C35.2723+43.0672+35.6861+43.4246+36.0212+43.8756C36.3564+44.3322+36.6126+44.8601+36.7852+45.4651C36.9576+46.0756+37.0463+46.719+37.0463+47.4066C37.0463+48.0941+36.9576+48.7376+36.7852+49.348C36.6126+49.9585+36.3564+50.4864+36.0212+50.9375C35.6861+51.3938+35.2723+51.7459+34.7795+52.0043C34.2866+52.263+33.7248+52.3949+33.0991+52.3949C32.4732+52.3949+31.9213+52.263+31.4333+52.0043C30.9455+51.7459+30.5415+51.3938+30.2113+50.9375C29.8811+50.4864+29.6249+49.9585+29.4523+49.348C29.2799+48.7376+29.1912+48.0941+29.1912+47.4066ZM30.4577+47.4066C30.4577+47.9235+30.5169+48.4076+30.64+48.8584C30.7633+49.315+30.9357+49.711+31.1623+50.0465C31.3891+50.3818+31.67+50.646+32+50.8384C32.3302+51.0308+32.695+51.1299+33.0991+51.1299C33.508+51.1299+33.8777+51.0308+34.2079+50.8384C34.5379+50.646+34.819+50.3818+35.0505+50.0465C35.2821+49.711+35.4545+49.315+35.5778+48.8584C35.7009+48.4076+35.7601+47.9235+35.7601+47.4066C35.7601+46.8896+35.7009+46.4056+35.5778+45.9492C35.4545+45.4981+35.2821+45.1021+35.0505+44.7666C34.819+44.4311+34.5379+44.1671+34.2079+43.9637C33.8777+43.7601+33.508+43.6612+33.0991+43.6612C32.695+43.6612+32.3302+43.7601+32+43.9637C31.67+44.1671+31.3891+44.4311+31.1623+44.7666C30.9357+45.1021+30.7633+45.4981+30.64+45.9492C30.5169+46.4056+30.4577+46.8896+30.4577+47.4066ZM40.1263+38.7167L40.1263+40.3832L38.84+40.3832L38.84+38.7167L40.1263+38.7167ZM40.1263+42.5776L40.1263+54.0063C40.1263+54.8202+39.9389+55.4309+39.5645+55.8322C39.185+56.2338+38.712+56.4317+38.1452+56.4317C38.0318+56.4317+37.9137+56.4211+37.7953+56.3932C37.6819+56.3658+37.5637+56.3163+37.4503+56.2558L37.4503+55.0128C37.5785+55.0789+37.672+55.1227+37.7361+55.1392C37.8003+55.1561+37.8644+55.1667+37.9186+55.1667C38.2535+55.1667+38.4902+55.0238+38.6331+54.7434C38.7711+54.4574+38.84+54.1219+38.84+53.7314L38.84+42.5776L40.1263+42.5776ZM43.221+47.6595C43.2361+48.1106+43.3097+48.5449+43.4427+48.9685C43.5758+49.3921+43.7581+49.7659+43.9995+50.0959C44.236+50.4259+44.512+50.6845+44.8224+50.8769C45.1329+51.0694+45.4779+51.1684+45.8476+51.1684C47.0893+51.1684+47.9122+50.5249+48.3164+49.2324L49.4794+49.2324C49.3857+49.7331+49.2281+50.1839+48.9963+50.5745C48.7647+50.9705+48.4839+51.306+48.1586+51.5755C47.8335+51.8504+47.4737+52.0593+47.0745+52.1969C46.6754+52.3398+46.2663+52.4114+45.8476+52.4114C45.2463+52.4114+44.7043+52.274+44.2163+51.9933C43.7285+51.7183+43.3097+51.3443+42.9647+50.8714C42.6148+50.3983+42.3487+49.8484+42.1664+49.2269C41.9791+48.6055+41.8855+47.951+41.8855+47.2525C41.8855+46.6035+41.9791+45.9875+42.1664+45.4045C42.3487+44.8271+42.6148+44.3102+42.9549+43.8646C43.2949+43.4193+43.7088+43.0672+44.1966+42.7976C44.6846+42.5336+45.2266+42.4017+45.8328+42.4017C46.4192+42.4017+46.9514+42.5226+47.4195+42.7593C47.8876+42.9957+48.2917+43.3257+48.6219+43.738C48.9521+44.1506+49.2034+44.6457+49.3857+45.2231C49.568+45.8006+49.6567+46.4221+49.6567+47.0986L49.6567+47.6595L43.221+47.6595ZM48.3361+46.5541C48.3209+46.1526+48.2572+45.7731+48.1341+45.4156C48.0108+45.058+47.8434+44.7501+47.6215+44.4916C47.3998+44.2331+47.1337+44.0297+46.8133+43.8811C46.493+43.7327+46.1383+43.6612+45.744+43.6612C45.3842+43.6612+45.054+43.7435+44.7534+43.9031C44.453+44.0625+44.1867+44.2772+43.965+44.5411C43.7383+44.8106+43.561+45.1186+43.4328+45.4651C43.3048+45.8171+43.2357+46.1801+43.221+46.5541L48.3361+46.5541ZM55.2548+46.1251L58.4875+52.219L56.9943+52.219L54.3482+47.1536L52.7662+48.919L52.7662+52.219L51.4801+52.219L51.4801+38.7167L52.7662+38.7167L52.7662+47.038L56.8515+42.5776L58.4185+42.5776L55.2548+46.1251ZM62.2081+39.7067L62.2081+42.5776L63.5435+42.5776L63.5435+43.7986L62.2081+43.7986L62.2081+50.0465C62.2081+50.4699+62.2969+50.7669+62.4791+50.9265C62.6565+51.0859+62.8831+51.1684+63.164+51.1684C63.3366+51.1684+63.5336+51.1409+63.7554+51.0914L63.7554+52.2575C63.4204+52.3618+63.0557+52.4114+62.6614+52.4114C62.4298+52.4114+62.2081+52.3783+62.0012+52.3178C61.7891+52.252+61.6069+52.1419+61.4443+51.9933C61.2816+51.8449+61.1536+51.6523+61.0599+51.4104C60.9662+51.1739+60.9218+50.8879+60.9218+50.5524L60.9218+43.7986L59.5815+43.7986L59.5815+42.5776L60.9218+42.5776L60.9218+39.7067L62.2081+39.7067Z" opacity="1" fill="#475c69"/>
<path d="M79.8648+46.1086C79.8105+46.7686+79.702+47.4066+79.5395+48.0281C79.3768+48.6495+79.1501+49.227+78.8594+49.7714C79.16+50.1509+79.4902+50.547+79.85+50.965C80.2096+51.3884+80.5644+51.8064+80.9242+52.219L79.3077+52.219C79.1008+51.9713+78.9038+51.7459+78.7215+51.5315C78.5341+51.317+78.3469+51.0804+78.1646+50.8219C77.726+51.3389+77.2036+51.7679+76.6024+52.1034C75.9962+52.4389+75.3262+52.6093+74.5819+52.6093C73.8774+52.6093+73.2811+52.4995+72.7931+52.2793C72.3053+52.0594+71.9111+51.7734+71.6105+51.4214C71.3099+51.0749+71.0929+50.6791+70.96+50.239C70.8268+49.7989+70.758+49.3646+70.758+48.941C70.758+48.5009+70.8416+48.0886+71.0093+47.6981C71.1768+47.3075+71.3936+46.9445+71.6597+46.598C71.9259+46.2572+72.2313+45.9272+72.5812+45.6082C72.9311+45.2947+73.2909+44.9867+73.6604+44.6896C73.2219+43.9527+72.8818+43.2707+72.6453+42.6492C72.4039+42.0278+72.2855+41.4723+72.2855+40.9827C72.2855+40.6472+72.3496+40.3172+72.4778+39.9872C72.6059+39.6572+72.7881+39.3603+73.0248+39.1018C73.2613+38.8433+73.557+38.6344+73.9119+38.4693C74.2665+38.3099+74.6707+38.2274+75.1191+38.2274C75.5972+38.2274+76.011+38.3099+76.3659+38.4803C76.7158+38.6509+77.0115+38.8709+77.2529+39.1403C77.4894+39.4098+77.6668+39.7123+77.7901+40.0423C77.9132+40.3723+77.9723+40.6968+77.9723+41.0213C77.9723+41.4228+77.8984+41.8023+77.7457+42.1596C77.593+42.5171+77.3958+42.8527+77.1543+43.1661C76.9129+43.4851+76.632+43.7931+76.3117+44.0901C75.9913+44.3871+75.6611+44.6788+75.3114+44.9647C75.671+45.5092+76.0653+46.0756+76.4939+46.6695C76.9227+47.2635+77.4303+47.94+78.0216+48.7046C78.194+48.3305+78.337+47.929+78.4406+47.4947C78.544+47.0601+78.6229+46.598+78.6672+46.1086L79.8648+46.1086ZM74.5622+51.229C75.1191+51.229+75.6365+51.1024+76.1047+50.8495C76.5728+50.5965+76.9868+50.2445+77.3464+49.7934C76.7649+49.0676+76.2278+48.3691+75.7302+47.7036C75.2325+47.0381+74.7644+46.3891+74.3356+45.7566C74.0251+46.0151+73.7294+46.2735+73.4535+46.5212C73.1726+46.7741+72.9262+47.0271+72.7045+47.2855C72.4828+47.544+72.3102+47.8136+72.1822+48.0941C72.054+48.3746+71.9898+48.6605+71.9898+48.9575C71.9898+49.3481+72.0638+49.6836+72.2068+49.975C72.3496+50.2665+72.5467+50.503+72.7931+50.6846C73.0347+50.866+73.3106+51.0036+73.6211+51.0914C73.9265+51.185+74.2419+51.229+74.5622+51.229ZM73.5028+40.9662C73.5028+41.3017+73.5915+41.7088+73.7738+42.1761C73.9511+42.6492+74.237+43.2267+74.6313+43.9142C74.922+43.6833+75.198+43.4521+75.4542+43.2157C75.7055+42.9847+75.9272+42.7483+76.1195+42.5061C76.3117+42.2697+76.4596+42.0278+76.5728+41.7803C76.6813+41.5327+76.7355+41.2797+76.7355+41.0213C76.7355+40.5043+76.5777+40.1248+76.2574+39.8884C75.9371+39.6517+75.5528+39.5309+75.1043+39.5309C74.8924+39.5309+74.6954+39.5639+74.503+39.6244C74.3109+39.6902+74.1435+39.7838+74.0004+39.8994C73.8576+40.0147+73.7393+40.1633+73.6456+40.3447C73.5521+40.5264+73.5028+40.7298+73.5028+40.9662Z" opacity="1" fill="#009ee0"/>
<path d="M89.1637+38.7938L89.1637+44.6347L95.703+44.6347L95.703+38.7938L96.9891+38.7938L96.9891+52.219L95.703+52.219L95.703+45.8941L89.1637+45.8941L89.1637+52.219L87.8774+52.219L87.8774+38.7938L89.1637+38.7938ZM99.0391+45.1571C99.0638+44.6787+99.177+44.2662+99.389+43.9197C99.596+43.5787+99.8571+43.2927+100.177+43.0672C100.498+42.8416+100.852+42.6767+101.247+42.5666C101.641+42.4568+102.03+42.4017+102.41+42.4017C102.838+42.4017+103.257+42.4513+103.657+42.5556C104.056+42.6602+104.411+42.8251+104.721+43.0507C105.031+43.2762+105.283+43.5731+105.47+43.9307C105.652+44.2937+105.746+44.7335+105.746+45.2562L105.746+50.338C105.746+50.5414+105.805+50.7338+105.928+50.9045C106.051+51.0804+106.199+51.1684+106.372+51.1684C106.431+51.1684+106.495+51.1578+106.559+51.1409C106.623+51.124+106.697+51.1024+106.791+51.0749L106.791+52.241C106.608+52.3013+106.456+52.3453+106.332+52.3728C106.209+52.4004+106.066+52.4114+105.904+52.4114C105.534+52.4114+105.229+52.2575+104.992+51.955C104.756+51.6523+104.617+51.1849+104.583+50.5524C104.302+50.954+104.036+51.273+103.775+51.5094C103.514+51.7459+103.252+51.933+102.986+52.0704C102.715+52.2079+102.449+52.3013+102.183+52.3453C101.917+52.3893+101.646+52.4114+101.365+52.4114C101.005+52.4114+100.675+52.3453+100.37+52.219C100.059+52.0924+99.793+51.911+99.5615+51.6743C99.3299+51.4434+99.1474+51.1574+99.0145+50.8219C98.8813+50.4864+98.8125+50.1069+98.8125+49.6945C98.8125+49.1499+98.9504+48.7045+99.2313+48.358C99.5072+48.0115+99.8522+47.7255+100.271+47.5056C100.69+47.2855+101.143+47.1041+101.636+46.961C102.129+46.8181+102.582+46.675+103.001+46.5321C103.42+46.3945+103.765+46.2241+104.046+46.0315C104.322+45.8391+104.46+45.5807+104.46+45.2562C104.46+44.6842+104.277+44.2772+103.913+44.0297C103.548+43.7821+103.036+43.6612+102.375+43.6612C101.868+43.6612+101.424+43.7766+101.045+44.0077C100.665+44.2442+100.444+44.6237+100.375+45.1571L99.0391+45.1571ZM104.46+46.7686C104.287+46.972+104.056+47.1481+103.775+47.291C103.489+47.4341+103.183+47.5604+102.863+47.6705C102.538+47.7806+102.213+47.8849+101.883+47.9895C101.552+48.0941+101.252+48.2094+100.986+48.347C100.72+48.4844+100.503+48.655+100.335+48.8584C100.163+49.0676+100.079+49.3205+100.079+49.6175C100.079+49.8869+100.123+50.1234+100.212+50.327C100.296+50.5304+100.409+50.69+100.552+50.8109C100.69+50.9375+100.848+51.0253+101.02+51.0804C101.193+51.1409+101.375+51.1684+101.557+51.1684C102.089+51.1684+102.612+50.987+103.124+50.624C103.632+50.2665+104.08+49.7165+104.46+48.9795L104.46+46.7686ZM108.614+42.5776L109.9+42.5776L109.9+44.0297C110.339+43.4521+110.822+43.0342+111.344+42.7813C111.866+42.5281+112.399+42.4017+112.946+42.4017C113.769+42.4017+114.404+42.6602+114.858+43.1771C115.306+43.6942+115.533+44.398+115.533+45.2947L115.533+52.2189L114.266+52.2189L114.266+45.4651C114.266+44.8051+114.128+44.3377+113.847+44.068C113.567+43.7986+113.187+43.6612+112.699+43.6612C112.305+43.6612+111.935+43.738+111.595+43.8921C111.255+44.0517+110.96+44.2552+110.708+44.5026C110.457+44.7556+110.26+45.0525+110.117+45.388C109.974+45.7235+109.9+46.07+109.9+46.4166L109.9+52.2189L108.614+52.2189L108.614+42.5776ZM123.373+47.269C123.358+46.7686+123.299+46.2955+123.191+45.8611C123.077+45.4266+122.925+45.047+122.727+44.717C122.53+44.3925+122.289+44.1341+121.998+43.9417C121.707+43.7546+121.377+43.6612+121.008+43.6612C120.638+43.6612+120.303+43.7601+120.007+43.9637C119.712+44.1671+119.465+44.4311+119.263+44.7666C119.061+45.1021+118.903+45.5036+118.8+45.96C118.696+46.4221+118.642+46.9114+118.642+47.4286C118.642+47.9455+118.696+48.4296+118.8+48.8804C118.903+49.337+119.061+49.7331+119.263+50.0739C119.465+50.4204+119.712+50.6845+120.007+50.8769C120.303+51.0694+120.638+51.1684+121.008+51.1684C121.387+51.1684+121.727+51.0694+122.018+50.8769C122.309+50.6845+122.555+50.4204+122.757+50.0739C122.959+49.7331+123.112+49.337+123.215+48.8804C123.319+48.4296+123.373+47.9455+123.373+47.4286L123.373+47.269ZM124.639+52.219L123.373+52.219L123.373+50.7614C123.072+51.317+122.708+51.7349+122.279+52.0153C121.85+52.2958+121.407+52.4334+120.953+52.4334C120.367+52.4334+119.849+52.3013+119.401+52.0428C118.953+51.7844+118.578+51.4324+118.278+50.976C117.977+50.5249+117.745+49.997+117.593+49.3865C117.435+48.7761+117.356+48.1271+117.356+47.4286C117.356+46.73+117.43+46.0756+117.583+45.4651C117.736+44.8601+117.962+44.3322+118.263+43.8756C118.563+43.4246+118.933+43.0672+119.372+42.7976C119.81+42.5336+120.328+42.4017+120.919+42.4017C121.131+42.4017+121.348+42.4403+121.574+42.5171C121.796+42.5942+122.018+42.7042+122.235+42.8471C122.447+42.9902+122.653+43.1551+122.851+43.3422C123.048+43.5291+123.22+43.738+123.373+43.9747L123.373+38.7167L124.639+38.7167L124.639+52.219ZM127.823+47.6595C127.838+48.1106+127.912+48.5449+128.045+48.9685C128.178+49.3921+128.36+49.7659+128.601+50.0959C128.838+50.4259+129.114+50.6845+129.425+50.8769C129.735+51.0694+130.08+51.1684+130.449+51.1684C131.691+51.1684+132.514+50.5249+132.918+49.2324L134.081+49.2324C133.988+49.7331+133.83+50.1839+133.598+50.5745C133.367+50.9705+133.086+51.306+132.761+51.5755C132.435+51.8504+132.076+52.0593+131.677+52.1969C131.277+52.3398+130.868+52.4114+130.449+52.4114C129.848+52.4114+129.306+52.274+128.818+51.9933C128.33+51.7183+127.912+51.3443+127.567+50.8714C127.217+50.3983+126.951+49.8484+126.768+49.2269C126.581+48.6055+126.487+47.951+126.487+47.2525C126.487+46.6035+126.581+45.9875+126.768+45.4045C126.951+44.8271+127.217+44.3102+127.557+43.8646C127.897+43.4193+128.311+43.0672+128.799+42.7976C129.286+42.5336+129.828+42.4017+130.435+42.4017C131.021+42.4017+131.553+42.5226+132.021+42.7593C132.49+42.9957+132.894+43.3257+133.224+43.738C133.554+44.1506+133.805+44.6457+133.988+45.2231C134.17+45.8006+134.259+46.4221+134.259+47.0986L134.259+47.6595L127.823+47.6595ZM132.938+46.5541C132.923+46.1526+132.859+45.7731+132.736+45.4156C132.613+45.058+132.445+44.7501+132.224+44.4916C132.002+44.2331+131.736+44.0297+131.415+43.8811C131.095+43.7327+130.74+43.6612+130.346+43.6612C129.986+43.6612+129.656+43.7435+129.355+43.9031C129.055+44.0625+128.789+44.2772+128.567+44.5411C128.34+44.8106+128.163+45.1186+128.035+45.4651C127.907+45.8171+127.838+46.1801+127.823+46.5541L132.938+46.5541ZM137.683+38.7167L137.683+52.219L136.412+52.219L136.412+38.7167L137.683+38.7167ZM146.618+45.4871C146.618+46.2735+146.712+46.9775+146.899+47.588C147.081+48.2039+147.332+48.7265+147.653+49.1499C147.973+49.579+148.338+49.9035+148.756+50.1234C149.175+50.3435+149.614+50.4534+150.077+50.4534C150.471+50.4534+150.856+50.36+151.225+50.1729C151.595+49.986+151.93+49.7276+152.226+49.3976C152.517+49.0676+152.763+48.6825+152.96+48.2425C153.157+47.8026+153.285+47.335+153.344+46.8456L149.885+46.8456L149.885+44.7501L155.325+44.7501L155.325+52.219L153.847+52.219L153.586+50.6295C153.364+50.8879+153.123+51.1299+152.852+51.3608C152.581+51.5975+152.29+51.8009+151.984+51.9768C151.674+52.1529+151.363+52.2903+151.053+52.3949C150.737+52.4994+150.422+52.5489+150.112+52.5489C149.264+52.5489+148.5+52.3673+147.825+52.0043C147.15+51.6415+146.573+51.1409+146.096+50.5084C145.617+49.8759+145.253+49.1334+145.002+48.27C144.745+47.4066+144.617+46.4826+144.617+45.4871C144.617+44.6182+144.74+43.7601+144.982+42.9131C145.223+42.0662+145.578+41.3072+146.046+40.6417C146.509+39.9762+147.076+39.4428+147.741+39.0357C148.407+38.6289+149.166+38.4252+150.023+38.4252C150.757+38.4252+151.413+38.5463+151.989+38.7828C152.566+39.0192+153.073+39.3547+153.512+39.7893C153.946+40.2238+154.315+40.7407+154.616+41.3347C154.916+41.9287+155.153+42.5832+155.325+43.2927L153.221+43.2927C152.931+42.3632+152.526+41.6647+152.009+41.1973C151.487+40.7297+150.826+40.4988+150.023+40.4988C149.525+40.4988+149.072+40.6362+148.653+40.9056C148.234+41.1753+147.874+41.5381+147.574+41.9892C147.273+42.4458+147.037+42.9737+146.869+43.5731C146.702+44.1726+146.618+44.8106+146.618+45.4871ZM157.169+42.5776L159.115+42.5776L159.115+43.4851C159.44+43.0838+159.785+42.8086+160.145+42.6492C160.505+42.4951+160.85+42.4183+161.185+42.4183C161.589+42.4183+161.963+42.5061+162.308+42.6822C162.648+42.8581+162.978+43.1826+163.289+43.6612C163.639+43.2101+164.038+42.8856+164.491+42.6932C164.94+42.5006+165.378+42.4017+165.807+42.4017C166.226+42.4017+166.61+42.4786+166.965+42.6327C167.315+42.7921+167.616+43.0067+167.867+43.2817C168.118+43.5621+168.315+43.8921+168.458+44.2717C168.601+44.6512+168.675+45.0635+168.675+45.5036L168.675+52.2189L166.729+52.2189L166.729+45.8721C166.729+45.5917+166.694+45.355+166.625+45.1736C166.556+44.9922+166.462+44.8491+166.349+44.739C166.231+44.6292+166.108+44.5521+165.975+44.5026C165.842+44.4586+165.704+44.4366+165.566+44.4366C165.369+44.4366+165.176+44.4861+164.984+44.5797C164.792+44.6787+164.619+44.8161+164.457+44.9922C164.294+45.1681+164.161+45.377+164.062+45.6137C163.964+45.8501+163.915+46.1086+163.915+46.378L163.915+52.2189L161.968+52.2189L161.968+45.8721C161.968+45.5917+161.934+45.355+161.865+45.1736C161.791+44.9922+161.707+44.8491+161.604+44.739C161.5+44.6292+161.382+44.5521+161.254+44.5026C161.126+44.4586+161.002+44.4366+160.889+44.4366C160.647+44.4366+160.416+44.5026+160.194+44.6292C159.972+44.7611+159.785+44.9262+159.632+45.1241C159.475+45.3275+159.352+45.5476+159.258+45.7841C159.164+46.026+159.115+46.2572+159.115+46.4771L159.115+52.2189L157.169+52.2189L157.169+42.5776ZM170.745+39.0632L172.706+39.0632L172.706+43.1991C172.987+42.9517+173.283+42.7593+173.598+42.6217C173.909+42.4841+174.214+42.4183+174.515+42.4183C175.121+42.4183+175.648+42.5501+176.101+42.8086C176.55+43.0672+176.929+43.4246+177.24+43.8756C177.545+44.3322+177.772+44.8601+177.925+45.4651C178.077+46.0756+178.151+46.73+178.151+47.4286C178.151+48.1161+178.073+48.7596+177.915+49.3645C177.757+49.975+177.526+50.5029+177.22+50.954C176.91+51.4104+176.53+51.7624+176.072+52.0208C175.614+52.2793+175.086+52.4114+174.48+52.4114C173.835+52.4114+173.243+52.1639+172.706+51.6743L172.706+52.2189L170.745+52.2189L170.745+39.0632ZM172.706+47.4286C172.706+47.8411+172.746+48.2259+172.819+48.5835C172.893+48.941+173.007+49.249+173.159+49.5129C173.312+49.7769+173.495+49.986+173.711+50.1399C173.923+50.2995+174.17+50.3765+174.446+50.3765C174.727+50.3765+174.973+50.2995+175.195+50.1399C175.416+49.986+175.599+49.7769+175.751+49.5129C175.904+49.249+176.018+48.941+176.101+48.5835C176.18+48.2259+176.22+47.8411+176.22+47.4286C176.22+47.016+176.18+46.6255+176.101+46.2627C176.018+45.8996+175.904+45.5807+175.751+45.3112C175.599+45.0415+175.416+44.8271+175.195+44.6677C174.973+44.5136+174.727+44.4366+174.446+44.4366C174.17+44.4366+173.928+44.5081+173.721+44.6567C173.509+44.8051+173.332+45.014+173.179+45.2727C173.026+45.5311+172.913+45.8336+172.839+46.1746C172.765+46.5211+172.721+46.8841+172.706+47.269L172.706+47.4286ZM181.852+38.7718L181.852+44.2276L187.14+44.2276L187.14+38.7718L189.155+38.7718L189.155+52.2189L187.14+52.2189L187.14+46.323L181.852+46.323L181.852+52.2189L179.837+52.2189L179.837+38.7718L181.852+38.7718Z" opacity="1" fill="#475c69"/>
</g>
</svg>
